HIERARCHY
ROOT Hips
{
	OFFSET	0.00	0.00	0.00
	CHANNELS 6 Xposition Yposition Zposition Zrotation Xrotation Yrotation
	JOINT LeftUpLeg
	{
		OFFSET	 0.126116	-0.065224	 0.014019
		CHANNELS 3 Zrotation Xrotation Yrotation
		JOINT LeftLeg
		{
			OFFSET	 0.000000	 0.569914	 0.000000
			CHANNELS 3 Zrotation Xrotation Yrotation
			JOINT LeftFoot
			{
				OFFSET	 0.000000	 0.544423	 0.000000
				CHANNELS 3 Zrotation Xrotation Yrotation
				JOINT LeftToeBase
				{
					OFFSET	 0.000000	 0.207117	 0.000000
					CHANNELS 3 Zrotation Xrotation Yrotation
					End Site
					{
						OFFSET	 0.000000	 0.207117	 0.000000
					}
				}
			}
		}
	}
	JOINT RightUpLeg
	{
		OFFSET	-0.124023	-0.065224	 0.008373
		CHANNELS 3 Zrotation Xrotation Yrotation
		JOINT RightLeg
		{
			OFFSET	 0.000000	 0.570047	 0.000000
			CHANNELS 3 Zrotation Xrotation Yrotation
			JOINT RightFoot
			{
				OFFSET	 0.000000	 0.544354	 0.000000
				CHANNELS 3 Zrotation Xrotation Yrotation
				JOINT RightToeBase
				{
					OFFSET	 0.000000	 0.207540	 0.000000
					CHANNELS 3 Zrotation Xrotation Yrotation
					End Site
					{
						OFFSET	 0.000000	 0.207540	 0.000000
					}
				}
			}
		}
	}
	JOINT Spine
	{
		OFFSET	 0.000184	 0.117403	 0.007763
		CHANNELS 3 Zrotation Xrotation Yrotation
		JOINT Spine1
		{
			OFFSET	 0.000000	 0.137269	 0.000000
			CHANNELS 3 Zrotation Xrotation Yrotation
			JOINT Spine2
			{
				OFFSET	 0.000000	 0.156879	 0.000000
				CHANNELS 3 Zrotation Xrotation Yrotation
				JOINT LeftShoulder
				{
					OFFSET	 0.080501	 0.160143	 0.002496
					CHANNELS 3 Zrotation Xrotation Yrotation
					JOINT LeftArm
					{
						OFFSET	 0.000000	 0.164363	 0.000000
						CHANNELS 3 Zrotation Xrotation Yrotation
						JOINT LeftForeArm
						{
							OFFSET	 0.000000	 0.364576	 0.000000
							CHANNELS 3 Zrotation Xrotation Yrotation
							JOINT LeftHand
							{
								OFFSET	 0.000000	 0.360812	 0.000000
								CHANNELS 3 Zrotation Xrotation Yrotation
								JOINT LeftHandIndex1
								{
									OFFSET	 0.000000	 0.086006	 0.000000
									CHANNELS 3 Zrotation Xrotation Yrotation
									JOINT LeftHandIndex2
									{
										OFFSET	 0.000000	 0.047237	 0.000000
										CHANNELS 3 Zrotation Xrotation Yrotation
										JOINT LeftHandIndex3
										{
											OFFSET	-0.004284	 0.038165	 0.000551
											CHANNELS 3 Zrotation Xrotation Yrotation
											End Site
											{
												OFFSET	-0.004284	 0.038165	 0.000551
											}
										}
									}
								}
							}
						}
					}
				}
				JOINT Neck
				{
					OFFSET	 0.000000	 0.176489	 0.000000
					CHANNELS 3 Zrotation Xrotation Yrotation
					JOINT Head
					{
						OFFSET	 0.000000	 0.077941	 0.001747
						CHANNELS 3 Zrotation Xrotation Yrotation
						End Site
						{
							OFFSET	 0.000000	 0.077941	 0.001747
						}
					}
				}
				JOINT RightShoulder
				{
					OFFSET	-0.080363	 0.159706	-0.000306
					CHANNELS 3 Zrotation Xrotation Yrotation
					JOINT RightArm
					{
						OFFSET	 0.000000	 0.164196	 0.000000
						CHANNELS 3 Zrotation Xrotation Yrotation
						JOINT RightForeArm
						{
							OFFSET	 0.000000	 0.365611	 0.000000
							CHANNELS 3 Zrotation Xrotation Yrotation
							JOINT RightHand
							{
								OFFSET	 0.000000	 0.360648	 0.000000
								CHANNELS 3 Zrotation Xrotation Yrotation
								JOINT RightHandIndex1
								{
									OFFSET	 0.000000	 0.069977	 0.000000
									CHANNELS 3 Zrotation Xrotation Yrotation
									JOINT RightHandIndex2
									{
										OFFSET	 0.000000	 0.052305	 0.000000
										CHANNELS 3 Zrotation Xrotation Yrotation
										JOINT RightHandIndex3
										{
											OFFSET	 0.009002	 0.042196	 0.000782
											CHANNELS 3 Zrotation Xrotation Yrotation
											End Site
											{
												OFFSET	 0.009002	 0.042196	 0.000782
											}
										}
									}
								}
							}
						}
					}
				}
			}
		}
	}
}
MOTION
Frames:    5
Frame Time: 0.03333334
-0.000880	 1.269935	-0.008677	 0.002201	 3.210588	 178.776900	 175.442100	 2.644473	 15.063410	 3.190549	-15.743980	 2.898402	-2.219866	 70.280680	 5.934636	 1.331492	 28.938720	-2.729976	-175.614300	 3.105581	-11.636080	-5.004019	-16.053920	-6.442050	-0.511544	 69.916180	-0.794011	-1.305364	 28.580680	 2.603532	-1.095300	 3.340851	-0.896585	-1.641008	 3.507764	-1.233631	-1.666953	-2.110612	-0.650200	-113.447100	 5.124006	 92.999610	 9.535345	 55.057290	 35.699150	 14.000130	-0.717241	 0.004226	-15.154710	-34.429970	-21.261270	-6.580301	 5.266122	 0.000000	 0.000000	 0.000000	 0.000000	 0.000000	 0.000000	 0.000000	 3.834198	-0.653896	-0.251456	 3.224914	 1.187312	 1.436201	 114.205000	-4.423441	-88.486060	-52.150310	 10.851930	 43.641980	-95.795830	-2.241547	-2.421984	-34.050430	-35.145390	-32.192970	-0.359780	 10.582420	 0.744568	 11.977790	 9.317285	-2.096060	-8.359142	 3.150323	 0.104225
-0.000784	 1.270279	-0.008779	 0.017523	 3.212967	 178.746300	 175.459900	 2.649598	 15.027710	 3.196203	-15.770440	 2.886122	-2.249715	 70.245500	 5.967431	 1.331492	 28.938720	-2.729976	-175.598100	 3.089973	-11.651560	-4.995482	-16.028010	-6.462367	-0.568297	 69.841990	-0.733533	-1.305374	 28.580720	 2.601154	-1.096797	 3.332017	-0.889260	-1.632302	 3.519397	-1.218485	-1.672512	-2.131629	-0.645725	-113.447200	 5.118954	 92.998500	 9.211073	 54.950720	 35.998310	 14.497030	-0.742128	 0.010580	-15.655190	-34.789840	-21.405960	-6.580301	 5.266122	 0.000000	 0.000000	 0.000000	 0.000000	 0.000000	 0.000000	 0.000000	 3.842402	-0.672722	-0.254010	 3.255754	 1.197981	 1.418436	 114.203500	-4.413443	-88.493300	-51.694140	 10.634020	 42.516200	-96.655810	-2.237911	-2.455605	-35.008110	-34.987950	-32.855380	-0.359779	 10.582370	 0.744568	 11.977790	 9.317235	-2.096050	-8.359141	 3.150297	 0.104228
-0.000629	 1.270654	-0.008931	 0.038823	 3.216257	 178.703800	 175.485500	 2.656500	 14.978710	 3.203982	-15.806900	 2.868921	-2.296620	 70.214620	 6.017093	 1.331492	 28.938720	-2.729976	-175.574100	 3.067536	-11.673440	-4.983547	-15.991740	-6.490909	-0.650263	 69.756710	-0.647423	-1.305387	 28.580800	 2.597833	-1.098946	 3.319706	-0.880677	-1.625005	 3.533021	-1.198722	-1.678019	-2.159617	-0.639471	-113.447300	 5.111934	 92.996970	 8.872737	 54.846790	 36.322770	 15.046320	-0.769638	 0.017813	-16.298730	-35.298290	-21.616390	-6.580301	 5.266122	 0.000000	 0.000000	 0.000000	 0.000000	 0.000000	 0.000000	 0.000000	 3.853863	-0.699017	-0.257574	 3.298847	 1.212691	 1.393606	 114.201500	-4.399493	-88.503380	-51.113830	 10.394560	 40.848850	-98.085160	-2.230660	-2.511379	-36.248890	-34.772980	-33.957360	-0.359777	 10.582290	 0.744568	 11.977790	 9.317166	-2.096035	-8.359139	 3.150260	 0.104231
-0.000415	 1.271020	-0.009134	 0.064201	 3.220265	 178.652500	 175.517600	 2.664459	 14.920010	 3.213289	-15.850410	 2.848499	-2.357710	 70.192510	 6.079894	 1.331492	 28.938720	-2.729976	-175.543900	 3.039083	-11.700250	-4.968826	-15.947040	-6.525077	-0.751459	 69.668620	-0.543121	-1.305402	 28.580890	 2.593856	-1.101598	 3.304964	-0.872118	-1.623167	 3.545598	-1.176491	-1.681356	-2.191381	-0.631981	-113.447400	 5.103500	 92.995120	 8.562494	 54.761340	 36.633800	 15.591280	-0.796809	 0.025261	-17.036470	-35.911130	-21.878420	-6.580301	 5.266122	 0.000000	 0.000000	 0.000000	 0.000000	 0.000000	 0.000000	 0.000000	 3.867580	-0.730501	-0.261833	 3.350460	 1.230446	 1.363845	 114.199100	-4.382758	-88.515500	-50.526760	 10.158650	 38.717140	-100.071200	-2.218415	-2.588451	-37.585180	-34.502040	-35.523800	-0.359774	 10.582210	 0.744568	 11.977790	 9.317082	-2.096019	-8.359138	 3.150216	 0.104235
-0.000115	 1.271398	-0.009408	 0.095179	 3.225118	 178.590300	 175.558600	 2.673293	 14.849480	 3.224441	-15.902580	 2.823441	-2.436465	 70.177830	 6.158849	 1.331492	 28.938720	-2.729976	-175.505000	 3.002691	-11.732450	-4.950562	-15.891500	-6.567201	-0.879168	 69.572810	-0.413930	-1.305421	 28.581000	 2.588979	-1.104928	 3.286913	-0.864101	-1.629571	 3.555159	-1.151275	-1.681405	-2.227432	-0.622770	-113.447600	 5.093166	 92.992840	 8.267408	 54.694030	 36.946670	 16.164220	-0.825301	 0.033387	-17.925760	-36.664630	-22.213940	-6.580301	 5.266122	 0.000000	 0.000000	 0.000000	 0.000000	 0.000000	 0.000000	 0.000000	 3.884399	-0.769110	-0.267045	 3.413781	 1.252072	 1.327308	 114.196100	-4.362252	-88.530320	-50.008120	 9.872640	 35.918970	-102.782300	-2.197242	-2.692909	-39.006790	-34.114800	-37.769300	-0.359771	 10.582110	 0.744568	 11.977790	 9.316980	-2.095998	-8.359137	 3.150162	 0.104241
